<svg height="256.293337" overflow="hidden" viewBox="0 0 510 335" width="390.177916" xmlns="http://www.w3.org/2000/svg" xmlns:xlink="http://www.w3.org/1999/xlink"><clipPath id="a"><path d="m689 123h510v335h-510z"/></clipPath><linearGradient id="b" gradientUnits="userSpaceOnUse" spreadMethod="reflect" x1="998.502" x2="998.502" y1="214" y2="370"><stop offset="0" stop-color="#fafafa"/><stop offset=".06" stop-color="#fafafa"/><stop offset=".18" stop-color="#d4d4d4"/><stop offset=".34" stop-color="#efefef"/><stop offset=".5" stop-color="#fdfdfd"/><stop offset=".77" stop-color="#efefef"/><stop offset="1" stop-color="#8c8c8c"/></linearGradient><linearGradient id="c"><stop offset="0" stop-color="#a6a6a6"/><stop offset=".01" stop-color="#a6a6a6"/><stop offset=".24"/><stop offset="1"/></linearGradient><linearGradient id="d" gradientUnits="userSpaceOnUse" spreadMethod="reflect" x1="1014" x2="1014" xlink:href="#c" y1="291" y2="339"/><linearGradient id="e" gradientUnits="userSpaceOnUse" spreadMethod="reflect" x1="998.002" x2="998.002" y1="125" y2="281"><stop offset="0" stop-color="#fafafa"/><stop offset=".06" stop-color="#fafafa"/><stop offset=".18" stop-color="#d4d4d4"/><stop offset=".34" stop-color="#efefef"/><stop offset=".5" stop-color="#fdfdfd"/><stop offset=".63" stop-color="#efefef"/><stop offset=".81" stop-color="#4d4d4d"/><stop offset="1" stop-color="#4d4d4d"/></linearGradient><linearGradient id="f"><stop offset="0" stop-color="#fafafa"/><stop offset=".06" stop-color="#fafafa"/><stop offset=".18" stop-color="#d4d4d4"/><stop offset=".34" stop-color="#efefef"/><stop offset=".5" stop-color="#fdfdfd"/><stop offset=".63" stop-color="#efefef"/><stop offset=".88" stop-color="#8c8c8c"/><stop offset="1" stop-color="#4d4d4d"/></linearGradient><linearGradient id="g" gradientUnits="userSpaceOnUse" spreadMethod="reflect" x1="1019" x2="1019" xlink:href="#f" y1="134" y2="281"/><linearGradient id="h" gradientUnits="userSpaceOnUse" spreadMethod="reflect" x1="977.502" x2="977.502" xlink:href="#f" y1="214" y2="361"/><linearGradient id="i" gradientUnits="userSpaceOnUse" spreadMethod="reflect" x1="873.002" x2="873.002" y1="130" y2="281"><stop offset="0" stop-color="#fafafa"/><stop offset=".14286" stop-color="#fafafa"/><stop offset=".45" stop-color="#efefef"/><stop offset=".82" stop-color="#8c8c8c"/><stop offset="1" stop-color="#8c8c8c"/></linearGradient><linearGradient id="j" gradientUnits="userSpaceOnUse" spreadMethod="reflect" x1="876.002" x2="876.002" xlink:href="#f" y1="131" y2="280"/><linearGradient id="k" gradientUnits="userSpaceOnUse" spreadMethod="reflect" x1="981.002" x2="981.002" xlink:href="#c" y1="207" y2="255"/><linearGradient id="l" gradientUnits="userSpaceOnUse" spreadMethod="reflect" x1="895.502" x2="895.502" y1="125" y2="286"><stop offset="0" stop-color="#8c8c8c"/><stop offset=".1" stop-color="#8c8c8c"/><stop offset=".369" stop-color="#efefef"/><stop offset=".5" stop-color="#fdfdfd"/><stop offset=".63" stop-color="#efefef"/><stop offset=".88" stop-color="#8c8c8c"/><stop offset="1" stop-color="#4d4d4d"/></linearGradient><linearGradient id="m" gradientUnits="userSpaceOnUse" spreadMethod="reflect" x1="912.002" x2="912.002" xlink:href="#c" y1="207" y2="255"/><g clip-path="url(#a)" fill-rule="evenodd" transform="translate(-689 -123)"><path d="m1046.54 285.624c-.82-.814-5.2-4.612-5.2-4.612l-87.043-67.012c15.055 14.65 37.225 38.525 44.068 59.687 1.915 5.697 2.735 11.123 2.735 16.007 0 4.341-1.09 9.224-2.735 14.108-3.558 8.953-10.948 19.262-22.171 30.928-3.832 4.07-20.528 20.348-26.002 25.774-1.095 1.086-1.916 2.713-2.19 4.613v4.883l97.718-75.423c1.09-.814 3.28-2.441 3.28-5.154-.27-1.628-1.91-3.256-2.46-3.799z" fill="url(#b)"/><path d="m984.013 338.994c-.54-.539 18.357-14.021 28.877-36.939 2.97-6.471 4.32-9.168 10.53-9.707 6.48-.539 14.31-1.078 18.09-1.348 1.61 0 2.15.27 2.42 1.079.27.539-.27 1.348-1.61 2.157-9.99 7.01-24.84 19.143-45.081 35.051-.81 1.079-12.956 9.977-13.226 9.707z" fill="url(#d)"/><path d="m997.692 221.753c-1.931-5.708-2.759-11.143-2.759-16.035 0-4.349 1.103-9.241 2.759-14.133 3.588-8.968 11.038-19.296 22.348-30.982 3.58-3.805 18.48-18.481 26.2-25.819 1.38-1.359 1.93-2.718 2.49-4.62.27-1.631.27-2.99.27-3.533v-1.631l-98.757 75.554c-.551.544-2.207 1.902-3.034 3.533-.276.544-.276 1.903 0 2.99.552 1.359 1.379 2.174 1.931 2.717.828.544 4.965 4.077 4.965 4.077l87.725 67.129c-15.45-14.676-37.24-38.592-44.138-59.247z" fill="url(#e)"/><path d="m992.504 220.219c-1.646-4.906-2.743-10.085-2.743-14.991 0-4.633 1.372-8.994 3.018-13.628 7.951-19.351 45.541-52.331 53.221-58.6-6.31 4.906-34.02 28.346-41.15 35.705-11.797 11.448-20.85 24.258-20.85 36.796 0 13.628 9.602 27.529 20.58 40.339 6.85 8.177 13.44 15.263 20.02 20.987 6.86 6.269 11.52 10.357 16.46 14.173-5.48-5.179-39.5-35.16-48.556-60.781z"/><path d="m998.104 221.713c-1.912-5.685-2.731-11.1-2.731-15.973 0-4.331 1.092-9.204 2.731-14.077 3.556-8.934 10.926-19.221 22.126-30.862 3.55-3.79 18.3-18.409 25.95-25.718.28-.271.55-.542.82-1.083-7.65 5.956-45.07 38.983-52.993 58.204-1.912 4.603-3.005 8.934-3.005 13.536 0 4.873.819 10.017 2.732 14.89 9.016 25.447 42.346 54.956 48.076 60.37-15.57-15.16-36.88-38.713-43.706-59.287z" fill="url(#g)"/><path d="m1003.45 274.529c-9.167-25.4-43.892-55.665-49.448-60.529 15.279 14.592 37.78 38.371 44.725 59.449 1.943 5.674 2.783 11.079 2.783 15.943 0 4.323-1.12 9.187-2.783 14.051-3.611 8.917-11.112 19.186-22.501 30.805-3.889 4.053-20.835 20.267-26.391 25.671-.277.27-.555.541-.833 1.081 7.778-6.215 45.558-38.912 53.888-58.097 1.95-4.594 3.06-8.918 3.06-13.511.28-4.864-.56-9.728-2.5-14.863z" fill="url(#h)"/><path d="m990.841 249.622c-6.811-8.144-13.349-15.201-19.888-20.902-6.81-6.243-11.986-10.857-16.89-14.658 5.721 4.886 39.774 35.56 48.487 60.804 1.64 4.886 2.73 10.044 2.73 14.93 0 4.614-1.36 8.957-3 13.572-8.17 19.272-45.22 52.117-53.121 58.361v.271c6.539-4.886 34.054-28.23 41.137-35.559 11.714-11.401 20.704-24.159 20.704-36.645 0-13.573-9.53-27.416-20.159-40.174zm-80.094-44.246c0 13.572-9.262 27.145-21.521 39.631-7.9 7.872-15.801 14.93-23.156 20.63-7.628 6.243-13.622 10.315-19.07 14.115 6.266-4.886 44.678-34.473 54.757-59.718 1.907-4.886 2.997-9.772 2.997-14.658s-1.09-9.772-2.997-14.658c-10.079-25.244-48.491-54.832-54.757-59.718 5.448 3.8 11.442 7.872 19.07 14.115 7.355 5.701 15.256 12.758 23.156 20.63 12.259 12.486 21.521 26.33 21.521 39.631z"/><path d="m846.657 279.914-1.655 1.086v-151l1.655 1.086c5.793 4.889 41.931 34.491 51.311 59.749 1.931 4.888 3.034 9.777 3.034 14.665 0 4.889-1.103 9.777-3.034 14.665-9.656 25.258-45.518 54.86-51.311 59.749" fill="url(#i)"/><path d="m847.002 280c6.292-4.894 44.868-34.531 54.991-59.818 1.915-4.894 3.009-9.788 3.009-14.682s-1.094-9.788-3.009-14.682c-10.123-25.287-48.699-54.924-54.991-59.818 5.745 4.894 41.585 34.531 50.887 59.818 1.915 4.894 3.009 9.788 3.009 14.682s-1.094 9.788-3.009 14.682c-9.576 25.287-45.142 54.924-50.887 59.818z" fill="url(#j)"/><path d="m1047.26 285.108c-7.13-6.788-39.78-37.472-48.554-63.811-1.92-5.431-2.743-10.59-2.743-15.75 0-4.616 1.097-8.96 2.743-13.576 4.114-10.319 12.894-21.452 21.944-30.684 3.84-4.073 20.57-20.365 26.06-26.068 1.37-1.358 2.19-2.987 2.47-4.616.27-1.629.55-3.258.55-4.345v-2.986l-99.576 76.302c-1.097.814-2.743 2.172-3.291 4.344-.549-1.901-2.195-3.53-3.292-4.344l-99.571-76.574v164.823l99.571-76.573c1.097-.815 2.743-2.173 3.292-4.345.548 1.629 1.646 2.987 2.194 3.259 7.132 6.788 40.048 37.472 48.826 63.811 1.92 5.431 2.747 10.59 2.747 15.749 0 4.616-1.101 8.961-2.747 13.577-4.115 10.318-12.892 21.452-21.944 30.684-3.84 4.073-20.573 20.637-26.059 26.067-1.097 1.087-2.194 2.987-2.469 4.617-.274 1.357-.548 2.715-.548 4.344v2.987l99.567-76.574c1.38-1.086 3.57-2.986 3.57-5.702-.27-2.444-2.19-4.073-2.74-4.616zm-104.237-74.673-98.2 75.488v-161.022l97.925 75.487c1.098.815 3.292 2.716 3.292 5.159 0 2.173-1.92 4.074-3.017 4.888zm4.663-3.53c-.275-1.086-.275-2.172 0-2.987.548-1.629 2.194-2.987 3.017-3.53l97.927-75.487v1.357c0 .544 0 1.901-.28 3.53-.27 1.901-1.09 3.53-2.46 4.617-7.41 7.331-22.5 21.994-26.06 25.796-11.25 11.676-18.66 21.994-22.221 30.955-1.921 4.888-2.743 9.504-2.743 14.12 0 5.159 1.097 10.59 2.743 16.021 6.861 20.908 28.531 44.532 43.611 59.195l-86.677-66.798s-4.114-3.53-4.937-4.073c-.549-.544-1.372-1.63-1.92-2.716zm97.924 87.978-97.924 75.488v-1.358c0-1.358.274-2.444.274-3.53.274-1.901 1.097-3.53 2.469-4.616l26.058-25.796c11.247-11.676 18.653-21.995 22.219-30.955 1.924-4.888 2.744-9.504 2.744-14.12 0-5.16-1.1-10.59-2.744-16.021-7.132-21.18-29.076-45.075-44.163-59.738l87.507 67.341s4.38 3.802 5.21 4.616c.55.543 2.19 2.172 2.19 4.073-.55 1.901-2.74 3.802-3.84 4.616z" fill="#262626"/><path d="m1011 254.994c.27-.271-9.95-10.033-11.326-11.117-11.322-10.304-20.435-26.302-20.435-26.302-3.314-6.508-4.419-9.219-10.77-9.762-6.628-.542-11.046-.813-14.913-.813-1.657 0-2.209.271-2.485 1.085-.276.542.276 1.355 1.657 2.169 10.218 7.05 25.406 18.98 46.118 35.25 1.384.813 11.874 9.761 12.154 9.49z" fill="url(#k)"/><path d="m845.002 281.113 1.642-1.086c5.474-3.801 11.496-7.874 19.16-14.118 7.39-5.702 15.328-12.761 23.266-20.634 12.317-12.489 21.623-26.064 21.623-39.639s-9.306-27.15-21.623-39.639c-7.938-7.874-15.876-14.933-23.266-20.634-7.664-6.245-13.686-10.317-19.16-14.118l-1.642-1.086v-5.159l97.715 75.477c1.095.815 3.285 2.715 3.285 5.159 0 2.443-1.916 4.072-3.285 5.158l-97.715 75.206z" fill="url(#l)"/><path d="m882.002 254.981s2.452-2.439 8.172-7.59c1.363-1.084 2.725-2.44 3.814-3.524 11.169-10.301 20.159-26.295 20.159-26.295 3.269-6.506 4.359-9.217 10.625-9.759 6.538-.542 10.896-.813 14.71-.813 1.635 0 2.179.271 2.452 1.084.272.542-.273 1.356-1.635 2.169-10.079 7.048-24.79 19.247-45.493 35.241-1.363 1.084-2.725 2.168-4.087 2.981-5.448 4.067-8.445 6.777-8.717 6.506z" fill="url(#m)"/><path d="m1168.41 441.959c-1.07 7.128 3.78 13.788 10.86 14.874 1.33.205 2.7.198 4.04-.023 6.99 1.005 13.46-3.895 14.46-10.945.12-.861.16-1.732.1-2.6.98-7.114-3.82-13.723-10.84-14.933l-4.13-1.224c-4.69-1.469-6.39-3.264-6.39-8.16s2.02-5.957 6.31-5.957 6.8 2.285 6.88 7.344h7.04c0-9.629-4.69-13.872-14.32-13.872-6.66-.778-12.69 4.034-13.46 10.749-.08.712-.1 1.429-.06 2.144-.79 7.166 4.33 13.622 11.44 14.42.07.009.14.016.21.023l4.37 1.306c3.82.704 6.44 4.274 5.99 8.16 0 4.488-2.02 6.772-7.28 6.772s-7.61-2.774-8.09-8.16zm-32.37 14.198h24.93v-6.691h-18.05v-15.259h15.05v-6.61h-15.05v-13.79h16.91v-6.61h-24.28zm-33.18 0h23.63v-6.691h-16.19v-42.269h-7.28zm-20.56 0h7.28v-48.96h-7.28zm-24.28-21.624c3.96 0 6.07 2.856 6.07 8.16s-2.19 7.263-6.32 7.263h-8.09v-15.749zm-.65-20.726c3.64 0 5.83 2.693 5.83 7.262 0 4.57-1.95 7.1-5.51 7.1h-7.61v-14.689zm-15.22 42.024h15.38c6.53.766 12.43-3.948 13.19-10.529.11-.921.11-1.851 0-2.772.72-4.969-2.07-9.775-6.71-11.587 3.88-2.325 6.04-6.74 5.5-11.261.71-6.178-3.68-11.767-9.81-12.485-.85-.1-1.72-.1-2.57 0h-14.98zm-27.52-42.677c5.35 0 8.1 3.101 8.1 8.895v18.849c0 5.794-2.92 8.976-8.1 8.976-4.47.023-8.11-3.612-8.13-8.119 0-.286.01-.572.04-.857v-18.849c-.4-4.489 2.88-8.456 7.33-8.862.26-.023.51-.034.76-.033m0-6.691c-7.92-.696-14.907 5.218-15.598 13.209-.089 1.036-.068 2.079.063 3.111v18.442c0 8.652 6.955 15.667 15.535 15.667 8.59 0 15.54-7.015 15.54-15.667v-18.85c1.02-7.957-4.56-15.235-12.45-16.257-1.02-.132-2.06-.153-3.09-.063m-64.744 49.368h6.879v-36.639l8.499 23.175h6.232l8.741-23.501v37.373h6.88v-48.96h-8.903l-9.956 27.581-10.117-27.581h-8.903zm-27.518-42.677c4.47-.018 8.108 3.62 8.126 8.127.001.256-.01.512-.033.768v18.849c0 4.642-3.732 8.405-8.336 8.405s-8.337-3.763-8.337-8.405v-18.441c-.402-4.489 2.881-8.456 7.333-8.862.253-.023.507-.034.761-.033m0-6.691c-7.926-.696-14.912 5.218-15.603 13.209-.089 1.036-.068 2.079.063 3.111v18.442c-.751 7.895 4.989 14.91 12.82 15.667.905.087 1.815.087 2.72 0 7.809.965 14.915-4.634 15.873-12.507.144-1.185.141-2.384-.01-3.568v-18.442c1.014-7.957-4.562-15.235-12.454-16.257-1.023-.132-2.057-.153-3.085-.063m-42.087 49.368h7.284v-41.698h11.817v-6.528h-31.08v6.528h11.817zm-20.963-14.525v-33.701h-7.284v34.762c0 5.875-2.59 8.16-7.446 8.16s-7.608-2.203-7.608-8.16v-34.762h-7.203v34.109c-.94 7.421 4.266 14.205 11.626 15.152 1.057.136 2.126.144 3.185.026 7.329.833 13.94-4.482 14.766-11.872.123-1.099.111-2.209-.036-3.306m-61.592-5.304 5.342-22.685 5.342 22.685zm15.216 19.829h7.446l-11.897-48.96h-10.765l-11.817 48.96h7.123l3.075-13.382h13.517zm-84.093-13.872c-.887 7.155 4.147 13.68 11.244 14.575 1.186.149 2.387.132 3.568-.05 6.992 1.004 13.467-3.896 14.464-10.945.122-.861.157-1.733.104-2.601.976-7.113-3.825-13.723-10.845-14.933l-3.723-1.224c-4.695-1.469-6.394-3.264-6.394-8.16s2.023-5.957 6.313-5.957c4.289 0 6.798 2.285 6.96 7.345h7.204c0-9.629-4.695-13.873-14.245-13.873-6.61-.826-12.633 3.906-13.453 10.569-.095.771-.116 1.549-.063 2.324-1.022 7.035 3.727 13.601 10.683 14.77l4.371 1.306c3.816.704 6.436 4.274 5.989 8.16 0 4.488-2.023 6.772-7.284 6.772s-7.608-2.774-7.608-8.16zm-25.009-28.234c4.47-.018 8.108 3.621 8.127 8.127.001.256-.01.513-.033.768v17.707c.447 4.484-2.796 8.485-7.244 8.935-.282.029-.566.043-.85.041h-6.556v-35.578zm-13.678 42.106h13.759c7.787.749 14.702-5.008 15.446-12.859.08-.852.085-1.71.013-2.563v-17.626c.756-7.85-4.943-14.831-12.729-15.593-.935-.092-1.876-.089-2.811.007h-13.678z" fill="#1d1d1b"/></g></svg>